<?xml version="1.0" encoding="UTF-8"?>
<svg id="Layer_2" data-name="Layer 2" xmlns="http://www.w3.org/2000/svg" viewBox="0 0 390.43 151.67">
  <defs>
    <style>
      .cls-1 {
        fill: #ee1a28;
      }

      .cls-2, .cls-3 {
        fill: #533021;
      }

      .cls-3 {
        font-family: CenturyGothic-Italic, 'Century Gothic';
        font-size: 19.41px;
        font-style: italic;
      }
    </style>
  </defs>
  <g id="frame">
    <g>
      <g>
        <g>
          <path class="cls-2" d="m281.77,8.57c-7.45.36-14.62,4.09-21.46,10.94-1.18,1.18-2.28,2.38-3.31,3.62v-13.36h-9.72v91.08h9.72v-48.92c.28-9.69,3.86-17.9,10.86-24.87,5.01-5.01,9.7-7.46,14.03-7.66l2.12-.06v-10.85l-2.25.07Z"/>
          <path class="cls-1" d="m178.96,88.51c-10.27-.05-18.48-3.45-25.77-10.68-7.22-7.3-10.62-15.5-10.67-25.78.05-10.28,3.45-18.48,10.67-25.78,7.29-7.22,15.5-10.62,25.77-10.67,10.27.05,18.5,3.45,25.81,10.68,7.24,7.3,10.65,15.5,10.7,25.78-.05,10.27-3.46,18.47-10.7,25.76-7.31,7.24-15.53,10.64-25.81,10.69M215.76,15.25C205.78,5.19,193.13-.05,178.96,0c-14.17-.05-26.82,5.19-36.8,15.25-10.06,9.99-15.3,22.64-15.25,36.81-.05,14.16,5.19,26.82,15.25,36.8,9.99,10.06,22.64,15.3,36.8,15.25h.22c14.08,0,26.66-5.24,36.59-15.25,10.06-9.98,15.3-22.64,15.25-36.8.05-14.17-5.19-26.83-15.26-36.81"/>
          <path class="cls-1" d="m338.37,88.51c-10.27-.05-18.47-3.45-25.77-10.68-7.23-7.3-10.62-15.5-10.68-25.78.05-10.28,3.45-18.48,10.68-25.78,7.3-7.22,15.5-10.62,25.77-10.67,10.28.05,18.5,3.45,25.81,10.68,7.25,7.3,10.65,15.5,10.7,25.78-.05,10.27-3.46,18.47-10.7,25.76-7.31,7.24-15.53,10.64-25.81,10.69m36.81-73.26C365.2,5.19,352.54-.05,338.37,0c-14.17-.05-26.82,5.19-36.8,15.25-10.06,9.99-15.31,22.64-15.25,36.81-.05,14.16,5.19,26.82,15.25,36.8,9.98,10.06,22.63,15.3,36.8,15.25h.22c14.08,0,26.66-5.24,36.59-15.25,10.06-9.98,15.3-22.64,15.25-36.8.05-14.17-5.19-26.83-15.25-36.81"/>
          <path class="cls-1" d="m52.06,88.51c-10.27-.05-18.48-3.45-25.77-10.68-7.23-7.3-10.62-15.5-10.68-25.78.05-10.28,3.45-18.48,10.68-25.78,7.29-7.22,15.51-10.62,25.77-10.67,10.28.05,18.49,3.45,25.81,10.68,7.25,7.3,10.65,15.5,10.7,25.78-.05,10.27-3.46,18.47-10.7,25.76-7.32,7.24-15.53,10.64-25.81,10.69M88.86,15.25C78.88,5.19,66.22-.05,52.06,0c-14.17-.05-26.82,5.19-36.81,15.25C5.19,25.23-.05,37.89,0,52.06c-.05,14.16,5.19,26.82,15.25,36.8,9.99,10.06,22.64,15.3,36.81,15.25h.22c14.07,0,26.65-5.24,36.59-15.25,10.05-9.98,15.3-22.64,15.25-36.8.05-14.17-5.2-26.83-15.25-36.81"/>
          <path class="cls-2" d="m126.9,52.06c-.04-11.32,3.31-21.67,9.78-30.47v-11.83h-9.78v120.39h9.78v-47.64c-6.47-8.79-9.82-19.14-9.78-30.46"/>
          <path class="cls-2" d="m48.58,55.57l25.54,25.54c1.27-.99,2.52-2.08,3.74-3.29,1.17-1.17,2.22-2.38,3.19-3.6l-25.57-25.56-6.91,6.91Z"/>
        </g>
        <path class="cls-2" d="m93.74,85.3c-1.03,1.22-2.12,2.41-3.28,3.56-1.18,1.19-2.39,2.3-3.64,3.35l13.76,13.76,6.92-6.92-13.76-13.76Z"/>
      </g>
      <text class="cls-3" transform="translate(272.11 145.72)"><tspan x="0" y="0">Arquitectura</tspan></text>
    </g>
  </g>
</svg>